# xmcd
#
# Track frame offsets:
#	150
#	14517
#	30572
#	48802
#	66107
#	79002
#	94702
#	113392
#	126867
#	141247
#	157324
#	175516
#	192831
#	205706
#	221341
#	239956
#
# Disc length: 3379
#
# Revision: 1
# Processed by: cddbd v1.5.1PL2 Copyright (c) Steve Scherf et al.
# Submitted via: kTunes Pro (development) 1.0patch43.17
#
DISCID=d70d3110
DTITLE=Various Artist - Priddis14
DYEAR=2000
DGENRE=Karaoke
TTITLE0=Alan Jackson - Don't Rock The Jukebox
TTITLE1=Alabama - The Closer You Get
TTITLE2=Clint Black - Wherever You Go
TTITLE3=John Michael Montgomery - Beer And Bones
TTITLE4=Randy Travis - Better Class Of Loser
TTITLE5=Tim McGraw - Where The Green Grass Grows
TTITLE6=Little Texas - What Might Have Been
TTITLE7=Sawyer Brown - Step That Step
TTITLE8=Alan Jackson - Don't Rock The Jukebox w/Vocals
TTITLE9=Alabama - The Closer You Get w/Vocals
TTITLE10=Clint Black - Wherever You Go w/Vocals
TTITLE11=John Michael Montgomery - Beer And Bones w/Vocals
TTITLE12=Randy Travis - Better Class Of Loser w/Vocals
TTITLE13=Tim McGraw - Where The Green Grass Grows w/Vocals
TTITLE14=Little Texas - What Might Have Been w/Vocals
TTITLE15=Sawyer Brown - Step That Step w/Vocals
EXTD=
EXTT0=
EXTT1=
EXTT2=
EXTT3=
EXTT4=
EXTT5=
EXTT6=
EXTT7=
EXTT8=
EXTT9=
EXTT10=
EXTT11=
EXTT12=
EXTT13=
EXTT14=
EXTT15=
PLAYORDER=
